<?xml version="1.0" encoding="utf-8"?>
<!-- Generator: Adobe Illustrator 19.1.0, SVG Export Plug-In . SVG Version: 6.00 Build 0)  -->
<!DOCTYPE svg PUBLIC "-//W3C//DTD SVG 1.1//EN" "http://www.w3.org/Graphics/SVG/1.1/DTD/svg11.dtd">
<svg version="1.1" id="レイヤー_1" xmlns="http://www.w3.org/2000/svg" xmlns:xlink="http://www.w3.org/1999/xlink" x="0px"
	 y="0px" viewBox="0 0 230.6 165.1" enable-background="new 0 0 230.6 165.1" xml:space="preserve">
<g>
	<circle fill="#FFFFFF" cx="55" cy="110.1" r="55"/>
	<polygon fill="#FFFFFF" points="79.9,61 110.1,0 110.1,55 110.1,110.1 	"/>
	<linearGradient id="SVGID_1_" gradientUnits="userSpaceOnUse" x1="50.8957" y1="82.8609" x2="87.3893" y2="78.2855">
		<stop  offset="0" style="stop-color:#FFFFFF"/>
		<stop  offset="1" style="stop-color:#999999"/>
	</linearGradient>
	<path opacity="0.3" fill="url(#SVGID_1_)" d="M46.8,55.7l8.2,54.4L79.9,61l0,0C72.4,57.2,64,55,55,55C52.2,55,49.5,55.3,46.8,55.7z
		"/>
	<path fill="#FFFFFF" d="M175.5,110.1h55c0-30.4-24.6-55-55-55s-55,24.6-55,55c0,30.4,24.6,55,55,55c15.2,0,29-6.2,38.9-16.1
		L175.5,110.1z"/>
	
		<linearGradient id="SVGID_2_" gradientUnits="userSpaceOnUse" x1="392.8098" y1="1470.6342" x2="429.3035" y2="1466.0587" gradientTransform="matrix(0.9497 -0.3133 -0.3133 -0.9497 267.8233 1656.884)">
		<stop  offset="0" style="stop-color:#FFFFFF"/>
		<stop  offset="1" style="stop-color:#999999"/>
	</linearGradient>
	<path opacity="0.3" fill="url(#SVGID_2_)" d="M184.8,164.3l-9.2-54.3l39,38.9l0,0c-5.9,5.9-13.2,10.6-21.7,13.4
		C190.1,163.2,187.4,163.9,184.8,164.3z"/>
</g>
</svg>
