<?xml version="1.0" encoding="utf-8"?>
<!-- Generator: Adobe Illustrator 19.1.0, SVG Export Plug-In . SVG Version: 6.00 Build 0)  -->
<!DOCTYPE svg PUBLIC "-//W3C//DTD SVG 1.1//EN" "http://www.w3.org/Graphics/SVG/1.1/DTD/svg11.dtd">
<svg version="1.1" id="レイヤー_1" xmlns="http://www.w3.org/2000/svg" xmlns:xlink="http://www.w3.org/1999/xlink" x="0px"
	 y="0px" viewBox="0 0 71 71" enable-background="new 0 0 71 71" xml:space="preserve">
<rect x="0" y="0" fill="#FFFFFF" width="71" height="71"/>
<g>
	<path fill-rule="evenodd" clip-rule="evenodd" fill="#191313" d="M35.5,12.4c-13.1,0-23.7,10.6-23.7,23.7
		c0,10.5,6.8,19.3,16.2,22.4c1.2,0.2,1.6-0.5,1.6-1.1c0-0.6,0-2.4,0-4.4c-6.6,1.4-8-2.8-8-2.8c-1.1-2.7-2.6-3.5-2.6-3.5
		c-2.1-1.5,0.2-1.4,0.2-1.4c2.4,0.2,3.6,2.4,3.6,2.4c2.1,3.6,5.5,2.6,6.9,2c0.2-1.5,0.8-2.6,1.5-3.2c-5.3-0.6-10.8-2.6-10.8-11.7
		c0-2.6,0.9-4.7,2.4-6.3c-0.2-0.6-1.1-3,0.2-6.3c0,0,2-0.6,6.5,2.4c1.9-0.5,3.9-0.8,5.9-0.8c2,0,4,0.3,5.9,0.8
		c4.5-3.1,6.5-2.4,6.5-2.4c1.3,3.3,0.5,5.7,0.2,6.3c1.5,1.7,2.4,3.8,2.4,6.3c0,9.1-5.5,11.1-10.8,11.7c0.8,0.7,1.6,2.2,1.6,4.4
		c0,3.2,0,5.7,0,6.5c0,0.6,0.4,1.4,1.6,1.1c9.4-3.1,16.2-12,16.2-22.4C59.2,23,48.6,12.4,35.5,12.4z"/>
	<path fill="#191313" d="M20.8,46.4c-0.1,0.1-0.2,0.2-0.4,0.1c-0.2-0.1-0.3-0.2-0.2-0.4c0.1-0.1,0.2-0.2,0.4-0.1
		C20.8,46.1,20.9,46.3,20.8,46.4L20.8,46.4z M20.5,46.2"/>
	<path fill="#191313" d="M21.8,47.5c-0.1,0.1-0.3,0.1-0.5-0.1c-0.2-0.2-0.2-0.4-0.1-0.5c0.1-0.1,0.3-0.1,0.5,0.1
		C21.9,47.1,21.9,47.4,21.8,47.5L21.8,47.5z M21.6,47.2"/>
	<path fill="#191313" d="M22.7,48.8c-0.1,0.1-0.4,0-0.5-0.2c-0.1-0.2-0.1-0.5,0-0.6c0.1-0.1,0.4,0,0.5,0.2
		C22.9,48.5,22.9,48.7,22.7,48.8L22.7,48.8z M22.7,48.8"/>
	<path fill="#191313" d="M24,50.2c-0.1,0.1-0.4,0.1-0.6-0.1c-0.2-0.2-0.3-0.5-0.1-0.6c0.1-0.1,0.4-0.1,0.6,0.1
		C24.1,49.7,24.1,50,24,50.2L24,50.2z M24,50.2"/>
	<path fill="#191313" d="M25.7,50.9c-0.1,0.2-0.3,0.3-0.6,0.2c-0.3-0.1-0.4-0.3-0.4-0.5c0.1-0.2,0.3-0.3,0.6-0.2
		C25.6,50.5,25.8,50.7,25.7,50.9L25.7,50.9z M25.7,50.9"/>
	<path fill="#191313" d="M27.7,51.1c0,0.2-0.2,0.4-0.5,0.4c-0.3,0-0.5-0.2-0.5-0.3c0-0.2,0.2-0.4,0.5-0.4
		C27.5,50.7,27.7,50.9,27.7,51.1L27.7,51.1z M27.7,51.1"/>
	<path fill="#191313" d="M29.5,50.7c0,0.2-0.2,0.4-0.4,0.4c-0.3,0.1-0.5-0.1-0.6-0.3c0-0.2,0.2-0.4,0.4-0.4
		C29.2,50.4,29.5,50.6,29.5,50.7L29.5,50.7z M29.5,50.7"/>
</g>
</svg>
