<?xml version="1.0" encoding="utf-8"?>
<!-- Generator: Adobe Illustrator 19.1.0, SVG Export Plug-In . SVG Version: 6.00 Build 0)  -->
<!DOCTYPE svg PUBLIC "-//W3C//DTD SVG 1.1//EN" "http://www.w3.org/Graphics/SVG/1.1/DTD/svg11.dtd">
<svg version="1.1" id="レイヤー_1" xmlns="http://www.w3.org/2000/svg" xmlns:xlink="http://www.w3.org/1999/xlink" x="0px"
	 y="0px" viewBox="0 0 35.1 35.1" enable-background="new 0 0 35.1 35.1" xml:space="preserve">
<g>
	<rect x="0" y="0" fill="#FFFFFF" width="35.1" height="35.1"/>
	<g>
		<path fill="#191313" d="M17.6,6.1c-6.5,0-11.7,5.2-11.7,11.7c0,5.2,3.4,9.5,8,11.1c0.6,0.1,0.8-0.2,0.8-0.5c0-0.3,0-1.2,0-2.2
			c-3.3,0.7-4-1.4-4-1.4c-0.5-1.3-1.3-1.7-1.3-1.7c-1-0.7,0.1-0.7,0.1-0.7c1.2,0.1,1.8,1.2,1.8,1.2c1,1.8,2.7,1.3,3.4,1
			c0.1-0.7,0.4-1.3,0.7-1.6c-2.6-0.3-5.3-1.3-5.3-5.8c0-1.3,0.4-2.3,1.2-3.1c-0.1-0.3-0.5-1.5,0.1-3.1c0,0,1-0.3,3.2,1.2
			c0.9-0.2,1.9-0.4,2.9-0.4s2,0.1,2.9,0.4c2.2-1.5,3.2-1.2,3.2-1.2c0.6,1.6,0.2,2.8,0.1,3.1c0.7,0.8,1.2,1.9,1.2,3.1
			c0,4.5-2.7,5.5-5.3,5.8c0.4,0.3,0.8,1.1,0.8,2.2c0,1.6,0,2.8,0,3.2c0,0.3,0.2,0.7,0.8,0.5c4.6-1.5,8-5.9,8-11.1
			C29.3,11.4,24,6.1,17.6,6.1z"/>
		<path fill="#191313" d="M10.3,22.9c0,0-0.1,0.1-0.2,0c-0.1,0-0.1-0.1-0.1-0.2c0,0,0.1-0.1,0.2,0C10.3,22.8,10.3,22.9,10.3,22.9
			L10.3,22.9z"/>
		<path fill="#191313" d="M10.8,23.5c0,0-0.1,0-0.2,0c-0.1-0.1-0.1-0.2,0-0.2c0,0,0.1,0,0.2,0C10.8,23.3,10.8,23.4,10.8,23.5
			L10.8,23.5z"/>
		<path fill="#191313" d="M11.2,24.1c0,0-0.2,0-0.2-0.1c0-0.1,0-0.2,0-0.3c0,0,0.2,0,0.2,0.1C11.3,24,11.3,24.1,11.2,24.1L11.2,24.1
			z"/>
		<path fill="#191313" d="M11.9,24.8c0,0-0.2,0-0.3,0c-0.1-0.1-0.1-0.2,0-0.3c0,0,0.2,0,0.3,0C11.9,24.6,11.9,24.7,11.9,24.8
			L11.9,24.8z"/>
		<path fill="#191313" d="M12.7,25.2c0,0.1-0.1,0.1-0.3,0.1s-0.2-0.1-0.2-0.2c0-0.1,0.1-0.1,0.3-0.1C12.7,25,12.8,25.1,12.7,25.2
			L12.7,25.2z"/>
		<path fill="#191313" d="M13.7,25.3c0,0.1-0.1,0.2-0.2,0.2s-0.2-0.1-0.2-0.1c0-0.1,0.1-0.2,0.2-0.2C13.6,25.1,13.7,25.2,13.7,25.3
			L13.7,25.3z"/>
		<path fill="#191313" d="M14.6,25.1c0,0.1-0.1,0.2-0.2,0.2c-0.1,0-0.2,0-0.3-0.1c0-0.1,0.1-0.2,0.2-0.2
			C14.4,24.9,14.6,25,14.6,25.1L14.6,25.1z"/>
	</g>
</g>
</svg>
