<?xml version="1.0" encoding="utf-8"?>
<!-- Generator: Adobe Illustrator 19.1.0, SVG Export Plug-In . SVG Version: 6.00 Build 0)  -->
<!DOCTYPE svg PUBLIC "-//W3C//DTD SVG 1.1//EN" "http://www.w3.org/Graphics/SVG/1.1/DTD/svg11.dtd">
<svg version="1.1" id="レイヤー_1" xmlns="http://www.w3.org/2000/svg" xmlns:xlink="http://www.w3.org/1999/xlink" x="0px"
	 y="0px" viewBox="0 0 35.1 35.1" enable-background="new 0 0 35.1 35.1" xml:space="preserve">
<g>
	<rect x="0" y="0" fill="#64A8DC" width="35.1" height="35.1"/>
	<g>
		<path fill="#FFFFFF" d="M26.6,12.5c-0.7,0.3-1.4,0.5-2.1,0.6c0.8-0.5,1.4-1.2,1.6-2.1c-0.7,0.4-1.5,0.7-2.4,0.9
			c-0.7-0.7-1.6-1.2-2.7-1.2c-2.1,0-3.7,1.7-3.7,3.7c0,0.3,0,0.6,0.1,0.8c-3.1-0.2-5.8-1.6-7.7-3.9c-0.3,0.5-0.5,1.2-0.5,1.9
			c0,1.3,0.7,2.4,1.7,3.1c-0.6,0-1.2-0.2-1.7-0.5c0,0,0,0,0,0c0,1.8,1.3,3.3,3,3.6c-0.3,0.1-0.6,0.1-1,0.1c-0.2,0-0.5,0-0.7-0.1
			c0.5,1.5,1.8,2.5,3.5,2.6c-1.3,1-2.9,1.6-4.6,1.6c-0.3,0-0.6,0-0.9-0.1c1.6,1.1,3.6,1.7,5.7,1.7c6.8,0,10.6-5.7,10.6-10.6
			c0-0.2,0-0.3,0-0.5C25.5,13.9,26.1,13.2,26.6,12.5L26.6,12.5z"/>
	</g>
</g>
</svg>
