<?xml version="1.0" encoding="utf-8"?>
<!-- Generator: Adobe Illustrator 19.1.0, SVG Export Plug-In . SVG Version: 6.00 Build 0)  -->
<!DOCTYPE svg PUBLIC "-//W3C//DTD SVG 1.1//EN" "http://www.w3.org/Graphics/SVG/1.1/DTD/svg11.dtd">
<svg version="1.1" id="レイヤー_1" xmlns="http://www.w3.org/2000/svg" xmlns:xlink="http://www.w3.org/1999/xlink" x="0px"
	 y="0px" viewBox="0 0 71 71" enable-background="new 0 0 71 71" xml:space="preserve">
<g>
	<rect x="0" y="0" fill="#64A8DC" width="71" height="71"/>
	<g>
		<path fill="#FFFFFF" d="M53.8,25.2c-1.3,0.6-2.8,1-4.3,1.2c1.6-0.9,2.7-2.4,3.3-4.2c-1.5,0.9-3.1,1.5-4.8,1.8
			c-1.4-1.5-3.3-2.4-5.5-2.4c-4.1,0-7.5,3.4-7.5,7.5c0,0.6,0.1,1.2,0.2,1.7c-6.2-0.3-11.8-3.3-15.5-7.8c-0.6,1.1-1,2.4-1,3.8
			c0,2.6,1.3,4.9,3.3,6.3c-1.2,0-2.4-0.4-3.4-0.9c0,0,0,0.1,0,0.1c0,3.6,2.6,6.7,6,7.4c-0.6,0.2-1.3,0.3-2,0.3c-0.5,0-1,0-1.4-0.1
			c1,3,3.7,5.2,7,5.2c-2.6,2-5.8,3.2-9.3,3.2c-0.6,0-1.2,0-1.8-0.1c3.3,2.1,7.3,3.4,11.5,3.4c13.8,0,21.4-11.4,21.4-21.4
			c0-0.3,0-0.6,0-1C51.5,28.1,52.8,26.8,53.8,25.2L53.8,25.2z"/>
	</g>
</g>
</svg>
